<svg height="512" viewBox="0 0 58 58" width="512" xmlns="http://www.w3.org/2000/svg"><g id="Page-1" fill="none" fill-rule="evenodd"><g id="023---Education-Book" fill-rule="nonzero"><path id="Shape" d="m4.087 40.083-3.963 11.247c-.2172228.6109407-.12478692 1.289277.24798421 1.8198201s.97961247.8474469 1.62801579.8501799h20c0 2.21 3.13 4 7 4s7-1.79 7-4h20c.6491104-.0014392 1.2571506-.3178092 1.630858-.8485532s.4665961-1.2098423.249142-1.8214468l-3.915-11.118z" fill="#a56a43"/><path id="Shape" d="m36 54c0 2.21-3.13 4-7 4s-7-1.79-7-4l1-4h12z" fill="#603e26"/><path id="Shape" d="m8.227 40.372-3.393 9.628h23.16 2.02 23.16l-3.434-9.742z" fill="#805333"/><path id="Shape" d="m54.88 44.01c-13.29-4.43-20.19.16-23.43 3.99-1.0320286 1.1888344-1.8599103 2.540478-2.45 4v-31.95h10c3.1706447-.1637095 6.3393131.3581487 9.29 1.53.2823037.1104349.5041697.335938.61.62l7.25 20.54c.1236364.3611176.0309198.7611201-.23898 1.03102-.2698999.2698998-.6699024.3626164-1.03102.23898z" fill="#f5efca"/><path id="Shape" d="m29 20.05v31.95c-.5900897-1.459522-1.4179714-2.8111656-2.45-4-3.23-3.83-10.13-8.42-23.43-3.99-.35984032.1184308-.75570892.0233582-1.02252015-.2455706-.26681123-.2689287-.35875154-.6655365-.23747985-1.0244294l6.25-17.74 3.82-4.13c2.288879-.6929076 4.6832863-.9706182 7.07-.82z" fill="#f9eab0"/><path id="Shape" d="m19 13.26v17.24c0 1.93 4.48 3.5 10 3.5s10-1.57 10-3.5v-17.24z" fill="#2c3e50"/><path id="Shape" d="m28.6 17.646-19.3-8.146c-.18047097-.07674674-.29763386-.25388821-.29763386-.45s.11716289-.37325326.29763386-.45l19.338-8.244c.2441567-.10347033.5198433-.10347033.764 0l19.298 8.144c.180471.07674674.2976339.25388821.2976339.45s-.1171629.37325326-.2976339.45l-19.338 8.244c-.2433069.1035459-.5181529.1042672-.762.002z" fill="#35495e"/><path id="Shape" d="m9 19c-.55228475 0-1-.4477153-1-1v-9c0-.55228475.44771525-1 1-1h20c.5522847 0 1 .44771525 1 1s-.4477153 1-1 1h-19v8c0 .5522847-.44771525 1-1 1z" fill="#f3d55b"/><path id="Shape" d="m5.447 22.106c-.309797.6199641-.27654862 1.3561233.08787399 1.9456365.36442262.5895131 1.00806786.94834 1.70112601.9483635h3.528c.6930582-.0000235 1.3367034-.3588504 1.701126-.9483635.3644226-.5895132.397671-1.3256724.087874-1.9456365l-2.659-5.317c-.16956122-.3383149-.5155717-.551933-.894-.551933s-.72443878.2136181-.894.551933z" fill="#f29c1f"/></g></g></svg>